<svg width="48" height="49" viewBox="0 0 48 49" fill="none" xmlns="http://www.w3.org/2000/svg">
<rect y="0.863281" width="48" height="48" rx="12" fill="#449183"/>
<g filter="url(#filter0_d_335_2148)">
<path d="M24.63 11.5947C24.0619 11.1223 23.3429 10.8633 22.6 10.8633C21.8571 10.8633 21.1381 11.1223 20.57 11.5947L11.12 19.4591C10.7692 19.7507 10.4873 20.1144 10.2938 20.5248C10.1004 20.9351 10.0001 21.3822 10 21.8347V35.3744C10 36.7087 11.0976 37.7915 12.45 37.7915H16.65C17.2998 37.7915 17.9229 37.5369 18.3824 37.0836C18.8419 36.6303 19.1 36.0155 19.1 35.3744V28.4685C19.1 28.1938 19.2106 27.9303 19.4075 27.7361C19.6045 27.5418 19.8715 27.4327 20.15 27.4327H26.849C26.9797 26.5405 27.3606 25.7022 27.9487 25.0123C28.5367 24.3224 29.3085 23.8084 30.177 23.5283C31.0454 23.2483 31.976 23.2132 32.8635 23.4272C33.7511 23.6412 34.5604 24.0957 35.2 24.7394V21.8347C35.1999 21.3822 35.0996 20.9351 34.9062 20.5248C34.7127 20.1144 34.4308 19.7507 34.08 19.4591L24.63 11.5947ZM35.2 28.1232C35.2 29.039 34.8313 29.9173 34.1749 30.5649C33.5185 31.2124 32.6283 31.5762 31.7 31.5762C30.7717 31.5762 29.8815 31.2124 29.2251 30.5649C28.5687 29.9173 28.2 29.039 28.2 28.1232C28.2 27.2075 28.5687 26.3292 29.2251 25.6816C29.8815 25.0341 30.7717 24.6703 31.7 24.6703C32.6283 24.6703 33.5185 25.0341 34.1749 25.6816C34.8313 26.3292 35.2 27.2075 35.2 28.1232ZM38 35.5471C38 37.6962 36.1996 39.8633 31.7 39.8633C27.2004 39.8633 25.4 37.7045 25.4 35.5471V35.4048C25.4 34.0513 26.5116 32.9574 27.8822 32.9574H35.5178C36.8898 32.9574 38 34.0527 38 35.4048V35.5471Z" fill="white"/>
</g>
<defs>
<filter id="filter0_d_335_2148" x="6" y="10.8633" width="36" height="37" filterUnits="userSpaceOnUse" color-interpolation-filters="sRGB">
<feFlood flood-opacity="0" result="BackgroundImageFix"/>
<feColorMatrix in="SourceAlpha" type="matrix" values="0 0 0 0 0 0 0 0 0 0 0 0 0 0 0 0 0 0 127 0" result="hardAlpha"/>
<feOffset dy="4"/>
<feGaussianBlur stdDeviation="2"/>
<feComposite in2="hardAlpha" operator="out"/>
<feColorMatrix type="matrix" values="0 0 0 0 0.121626 0 0 0 0 0.350282 0 0 0 0 0.308708 0 0 0 0.05 0"/>
<feBlend mode="normal" in2="BackgroundImageFix" result="effect1_dropShadow_335_2148"/>
<feBlend mode="normal" in="SourceGraphic" in2="effect1_dropShadow_335_2148" result="shape"/>
</filter>
</defs>
</svg>
