<svg width="48" height="49" viewBox="0 0 48 49" fill="none" xmlns="http://www.w3.org/2000/svg">
<rect y="0.863281" width="48" height="48" rx="12" fill="#449183"/>
<g filter="url(#filter0_d_335_2141)">
<path d="M25.0121 11.1372C24.7059 10.9578 24.3574 10.8633 24.0025 10.8633C23.6477 10.8633 23.2992 10.9578 22.993 11.1372L10.99 18.1667C10.6895 18.3433 10.4405 18.5955 10.2676 18.8981C10.0948 19.2008 10.0042 19.5434 10.0048 19.8919C10.0054 20.2404 10.0972 20.5827 10.2711 20.8847C10.445 21.1868 10.6949 21.438 10.996 21.6136L22.997 28.6072C23.3022 28.785 23.6492 28.8788 24.0025 28.8788C24.3559 28.8788 24.7029 28.785 25.0081 28.6072L37.0091 21.6136C37.3105 21.4378 37.5605 21.1862 37.7344 20.8837C37.9082 20.5813 37.9998 20.2386 38 19.8897C38.0002 19.5409 37.909 19.1981 37.7355 18.8954C37.562 18.5928 37.3123 18.3409 37.0111 18.1647L25.0101 11.1352L25.0121 11.1372ZM10.1632 24.1838L23.0209 31.417C23.3198 31.5849 23.6568 31.6731 23.9995 31.6731C24.3423 31.6731 24.6793 31.5849 24.9782 31.417L37.8359 24.1838C38.0292 24.632 38.0516 25.1355 37.8989 25.5991C37.7461 26.0627 37.4289 26.4543 37.0071 26.7L25.0041 33.6936C24.6991 33.8711 24.3525 33.9646 23.9995 33.9646C23.6466 33.9646 23.3 33.8711 22.995 33.6936L10.992 26.7C10.5702 26.4543 10.253 26.0627 10.1002 25.5991C9.94753 25.1355 9.96992 24.632 10.1632 24.1838ZM10.1632 29.0824L23.0209 36.3157C23.3198 36.4836 23.6568 36.5718 23.9995 36.5718C24.3423 36.5718 24.6793 36.4836 24.9782 36.3157L37.8359 29.0824C38.0292 29.5307 38.0516 30.0342 37.8989 30.4978C37.7461 30.9614 37.4289 31.353 37.0071 31.5987L25.0041 38.5923C24.6991 38.7698 24.3525 38.8633 23.9995 38.8633C23.6466 38.8633 23.3 38.7698 22.995 38.5923L10.992 31.5987C10.5702 31.353 10.253 30.9614 10.1002 30.4978C9.94753 30.0342 9.96992 29.5307 10.1632 29.0824Z" fill="white"/>
</g>
<defs>
<filter id="filter0_d_335_2141" x="6" y="10.8633" width="36" height="36" filterUnits="userSpaceOnUse" color-interpolation-filters="sRGB">
<feFlood flood-opacity="0" result="BackgroundImageFix"/>
<feColorMatrix in="SourceAlpha" type="matrix" values="0 0 0 0 0 0 0 0 0 0 0 0 0 0 0 0 0 0 127 0" result="hardAlpha"/>
<feOffset dy="4"/>
<feGaussianBlur stdDeviation="2"/>
<feComposite in2="hardAlpha" operator="out"/>
<feColorMatrix type="matrix" values="0 0 0 0 0.121626 0 0 0 0 0.350282 0 0 0 0 0.308708 0 0 0 0.05 0"/>
<feBlend mode="normal" in2="BackgroundImageFix" result="effect1_dropShadow_335_2141"/>
<feBlend mode="normal" in="SourceGraphic" in2="effect1_dropShadow_335_2141" result="shape"/>
</filter>
</defs>
</svg>
