<svg width="11" height="10" viewBox="0 0 11 10" fill="none" xmlns="http://www.w3.org/2000/svg">
<path d="M8.70027 5.20043L6.85362 6.67736H4.37555V6.18174H6.39022C6.43504 6.18172 6.47902 6.16954 6.51747 6.1465C6.55592 6.12346 6.5874 6.09042 6.60856 6.0509C6.62971 6.01138 6.63976 5.96687 6.63761 5.9221C6.63547 5.87732 6.62123 5.83397 6.59639 5.79665L6.15629 5.13649C6.066 5.0006 5.94349 4.88916 5.79969 4.81211C5.65587 4.73506 5.49523 4.69479 5.33208 4.6949H1.40186C1.27042 4.6949 1.14436 4.74712 1.05141 4.84006C0.958466 4.93301 0.90625 5.05907 0.90625 5.19052V8.1642C0.90625 8.42709 1.01068 8.67921 1.19657 8.8651C1.38247 9.05099 1.63459 9.15543 1.89748 9.15543H6.6747C6.88663 9.15548 7.09612 9.11022 7.28913 9.02269C7.48214 8.93516 7.65421 8.80738 7.7938 8.64792L10.8185 5.19052L10.0989 4.95064C9.86346 4.87216 9.61211 4.8539 9.3678 4.89753C9.12349 4.94117 8.89399 5.0453 8.70027 5.20043ZM7.54896 4.6949C7.9433 4.6949 8.32148 4.53825 8.60032 4.25942C8.87916 3.98058 9.03581 3.60239 9.03581 3.20806C9.03581 1.86594 7.54896 0.234375 7.54896 0.234375C7.54896 0.234375 6.06212 1.85553 6.06212 3.20806C6.06212 3.60239 6.21877 3.98058 6.49761 4.25942C6.77644 4.53825 7.15463 4.6949 7.54896 4.6949Z" fill="#00715D"/>
</svg>
