<svg width="158" height="38" viewBox="0 0 158 38" fill="none" xmlns="http://www.w3.org/2000/svg">
<path d="M57.0452 29.4096C54.8898 29.4096 53.0065 28.9043 51.3954 27.8936C49.7843 26.883 48.5324 25.4793 47.6398 23.6826C46.7471 21.8635 46.3008 19.7524 46.3008 17.3493C46.3008 14.9238 46.758 12.7902 47.6724 10.9486C48.6086 9.08452 49.9258 7.63593 51.624 6.60284C53.344 5.54728 55.3797 5.0195 57.7311 5.0195C60.409 5.0195 62.6298 5.68203 64.3933 7.00709C66.1568 8.33215 67.2998 10.1625 67.8224 12.4982H63.1523C62.8039 11.3978 62.1725 10.5443 61.2581 9.93794C60.3437 9.3091 59.168 8.99468 57.7311 8.99468C55.445 8.99468 53.6815 9.74704 52.4405 11.2518C51.1995 12.734 50.579 14.7778 50.579 17.383C50.579 19.9882 51.1886 22.0095 52.4078 23.4468C53.6488 24.8617 55.3253 25.5692 57.4371 25.5692C59.5055 25.5692 61.0622 24.9965 62.1072 23.8511C63.1741 22.6832 63.8163 21.156 64.034 19.2695H58.2536V16.0355H68.2469V29.0053H64.3933L64.0667 25.906C63.3265 27.029 62.4011 27.8936 61.2908 28.5C60.1804 29.1064 58.7652 29.4096 57.0452 29.4096Z" fill="#009E75"/>
<path d="M79.9854 29.4096C78.4178 29.4096 77.0026 29.039 75.7399 28.2979C74.4989 27.5567 73.5082 26.5349 72.768 25.2323C72.0495 23.9072 71.6903 22.38 71.6903 20.6507C71.6903 18.9214 72.0604 17.4054 72.8007 16.1028C73.5409 14.7778 74.5315 13.7447 75.7725 13.0035C77.0353 12.2624 78.4505 11.8918 80.0181 11.8918C81.5639 11.8918 82.9573 12.2624 84.1983 13.0035C85.4611 13.7447 86.4517 14.7778 87.1702 16.1028C87.9104 17.4054 88.2805 18.9214 88.2805 20.6507C88.2805 22.38 87.9104 23.9072 87.1702 25.2323C86.4517 26.5349 85.4611 27.5567 84.1983 28.2979C82.9355 29.039 81.5312 29.4096 79.9854 29.4096ZM79.9854 25.6702C81.074 25.6702 82.0211 25.2547 82.8266 24.4238C83.6322 23.5703 84.035 22.3127 84.035 20.6507C84.035 18.9888 83.6322 17.7423 82.8266 16.9113C82.0211 16.0579 81.0849 15.6312 80.0181 15.6312C78.9077 15.6312 77.9497 16.0579 77.1442 16.9113C76.3604 17.7423 75.9685 18.9888 75.9685 20.6507C75.9685 22.3127 76.3604 23.5703 77.1442 24.4238C77.9497 25.2547 78.8968 25.6702 79.9854 25.6702Z" fill="#009E75"/>
<path d="M92.0181 29.0053V4.75H96.1983V14.8564C96.7426 13.9356 97.472 13.2169 98.3864 12.7004C99.3226 12.1613 100.389 11.8918 101.587 11.8918C103.59 11.8918 105.136 12.5431 106.224 13.8457C107.335 15.1483 107.89 17.0573 107.89 19.5727V29.0053H103.742V19.977C103.742 18.5396 103.459 17.4391 102.893 16.6755C102.349 15.9119 101.478 15.5301 100.281 15.5301C99.1048 15.5301 98.1251 15.9569 97.3413 16.8103C96.5793 17.6637 96.1983 18.854 96.1983 20.3812V29.0053H92.0181Z" fill="#009E75"/>
<path d="M119.758 29.4096C118.125 29.4096 116.677 29.0502 115.414 28.3316C114.151 27.6129 113.161 26.6022 112.442 25.2996C111.724 23.997 111.365 22.4923 111.365 20.7855C111.365 19.0561 111.713 17.5177 112.41 16.1702C113.128 14.8227 114.108 13.7784 115.349 13.0372C116.612 12.2736 118.092 11.8918 119.79 11.8918C121.38 11.8918 122.784 12.2512 124.003 12.9699C125.222 13.6885 126.17 14.6767 126.844 15.9344C127.541 17.1696 127.89 18.5508 127.89 20.078C127.89 20.3251 127.879 20.5833 127.857 20.8528C127.857 21.1223 127.846 21.4031 127.824 21.695H115.512C115.599 22.9976 116.035 24.0195 116.818 24.7606C117.624 25.5018 118.593 25.8723 119.725 25.8723C120.574 25.8723 121.282 25.6814 121.848 25.2996C122.436 24.8954 122.871 24.3788 123.154 23.75H127.4C127.095 24.8056 126.583 25.7713 125.865 26.6472C125.168 27.5006 124.297 28.1744 123.252 28.6684C122.229 29.1625 121.064 29.4096 119.758 29.4096ZM119.79 15.3954C118.767 15.3954 117.864 15.6986 117.08 16.305C116.296 16.8889 115.795 17.7872 115.577 19H123.644C123.579 17.8995 123.187 17.0236 122.468 16.3723C121.75 15.721 120.857 15.3954 119.79 15.3954Z" fill="#009E75"/>
<path d="M131.405 29.0053V4.75H135.586V29.0053H131.405Z" fill="#009E75"/>
<path d="M139.857 36.4167V12.2961H143.58L144.037 14.6879C144.56 13.9468 145.245 13.2955 146.095 12.734C146.965 12.1726 148.087 11.8918 149.458 11.8918C150.982 11.8918 152.343 12.2736 153.541 13.0372C154.738 13.8008 155.685 14.8452 156.382 16.1702C157.078 17.4953 157.427 19 157.427 20.6844C157.427 22.3688 157.078 23.8735 156.382 25.1986C155.685 26.5012 154.738 27.5343 153.541 28.2979C152.343 29.039 150.982 29.4096 149.458 29.4096C148.239 29.4096 147.172 29.1738 146.258 28.7021C145.343 28.2305 144.603 27.568 144.037 26.7145V36.4167H139.857ZM148.577 25.6365C149.905 25.6365 151.004 25.1761 151.875 24.2553C152.746 23.3345 153.181 22.1442 153.181 20.6844C153.181 19.2246 152.746 18.023 151.875 17.0798C151.004 16.1365 149.905 15.6649 148.577 15.6649C147.227 15.6649 146.116 16.1365 145.245 17.0798C144.396 18.0006 143.972 19.1909 143.972 20.6507C143.972 22.1105 144.396 23.3121 145.245 24.2553C146.116 25.1761 147.227 25.6365 148.577 25.6365Z" fill="#009E75"/>
<path d="M0 29.3143H32.4118V38H0V29.3143Z" fill="#009E75"/>
<path d="M0 6.87619L16.2059 15.9238L32.4118 6.87619V19.9048L16.2059 28.9524L0 19.9048V6.87619Z" fill="#009E75"/>
<path d="M22.9897 6.69524C22.9897 10.3929 19.8681 13.3905 16.0174 13.3905C12.1667 13.3905 9.04514 10.3929 9.04514 6.69524C9.04514 2.99756 12.1667 0 16.0174 0C19.8681 0 22.9897 2.99756 22.9897 6.69524Z" fill="#009E75"/>
</svg>
