<svg width="130" height="40" viewBox="0 0 130 40" fill="none" xmlns="http://www.w3.org/2000/svg">
<path d="M49.0342 27.6702C47.446 27.6702 46.0583 27.2979 44.8711 26.5532C43.684 25.8085 42.7615 24.7742 42.1038 23.4504C41.4461 22.1099 41.1172 20.5544 41.1172 18.7837C41.1172 16.9965 41.4541 15.4243 42.1279 14.0674C42.8177 12.6939 43.7883 11.6265 45.0396 10.8652C46.3069 10.0875 47.8069 9.69858 49.5395 9.69858C51.5127 9.69858 53.1491 10.1868 54.4485 11.1631C55.7479 12.1395 56.5902 13.4882 56.9752 15.2092H53.5341C53.2774 14.3983 52.8122 13.7695 52.1384 13.3227C51.4646 12.8593 50.5983 12.6277 49.5395 12.6277C47.855 12.6277 46.5556 13.182 45.6412 14.2908C44.7267 15.383 44.2695 16.8889 44.2695 18.8085C44.2695 20.7281 44.7187 22.2175 45.6171 23.2766C46.5315 24.3191 47.7668 24.8404 49.3229 24.8404C50.847 24.8404 51.994 24.4184 52.764 23.5745C53.5501 22.7139 54.0234 21.5887 54.1838 20.1986H49.9245V17.8156H57.288V27.3723H54.4485L54.2079 25.0887C53.6624 25.9161 52.9806 26.5532 52.1624 27C51.3443 27.4468 50.3015 27.6702 49.0342 27.6702Z" fill="#009E75"/>
<path d="M65.9374 27.6702C64.7824 27.6702 63.7396 27.3972 62.8092 26.8511C61.8947 26.305 61.1648 25.552 60.6194 24.5922C60.0899 23.6158 59.8252 22.4905 59.8252 21.2163C59.8252 19.9421 60.098 18.8251 60.6434 17.8652C61.1889 16.8889 61.9188 16.1277 62.8332 15.5816C63.7637 15.0355 64.8064 14.7624 65.9615 14.7624C67.1005 14.7624 68.1272 15.0355 69.0417 15.5816C69.9721 16.1277 70.7021 16.8889 71.2315 17.8652C71.7769 18.8251 72.0496 19.9421 72.0496 21.2163C72.0496 22.4905 71.7769 23.6158 71.2315 24.5922C70.7021 25.552 69.9721 26.305 69.0417 26.8511C68.1112 27.3972 67.0765 27.6702 65.9374 27.6702ZM65.9374 24.9149C66.7396 24.9149 67.4374 24.6087 68.031 23.9965C68.6246 23.3676 68.9213 22.4409 68.9213 21.2163C68.9213 19.9917 68.6246 19.0733 68.031 18.461C67.4374 17.8322 66.7476 17.5177 65.9615 17.5177C65.1433 17.5177 64.4375 17.8322 63.8439 18.461C63.2664 19.0733 62.9776 19.9917 62.9776 21.2163C62.9776 22.4409 63.2664 23.3676 63.8439 23.9965C64.4375 24.6087 65.1353 24.9149 65.9374 24.9149Z" fill="#009E75"/>
<path d="M74.8036 27.3723V9.5H77.8838V16.9468C78.2848 16.2683 78.8223 15.7388 79.496 15.3582C80.1859 14.961 80.972 14.7624 81.8543 14.7624C83.3302 14.7624 84.4692 15.2423 85.2713 16.2021C86.0895 17.1619 86.4986 18.5686 86.4986 20.422V27.3723H83.4425V20.7199C83.4425 19.6608 83.2339 18.8499 82.8168 18.2872C82.4158 17.7246 81.7741 17.4433 80.8917 17.4433C80.0254 17.4433 79.3035 17.7577 78.726 18.3865C78.1645 19.0154 77.8838 19.8924 77.8838 21.0177V27.3723H74.8036Z" fill="#009E75"/>
<path d="M95.2433 27.6702C94.0401 27.6702 92.9733 27.4054 92.0428 26.8759C91.1124 26.3463 90.3824 25.6017 89.853 24.6418C89.3236 23.682 89.0589 22.5733 89.0589 21.3156C89.0589 20.0414 89.3156 18.9078 89.829 17.9149C90.3584 16.922 91.0803 16.1525 91.9947 15.6064C92.9252 15.0437 94.0161 14.7624 95.2674 14.7624C96.4385 14.7624 97.4732 15.0272 98.3716 15.5567C99.27 16.0863 99.9678 16.8144 100.465 17.7411C100.979 18.6513 101.235 19.669 101.235 20.7943C101.235 20.9764 101.227 21.1667 101.211 21.3652C101.211 21.5638 101.203 21.7707 101.187 21.9858H92.115C92.1792 22.9456 92.5001 23.6986 93.0776 24.2447C93.6712 24.7908 94.385 25.0638 95.2193 25.0638C95.8449 25.0638 96.3663 24.9232 96.7834 24.6418C97.2165 24.344 97.5374 23.9634 97.7459 23.5H100.874C100.65 24.2778 100.273 24.9894 99.7432 25.6348C99.2299 26.2636 98.5882 26.76 97.8181 27.1241C97.0641 27.4882 96.2059 27.6702 95.2433 27.6702ZM95.2674 17.344C94.5134 17.344 93.8476 17.5674 93.2701 18.0142C92.6926 18.4444 92.3236 19.1064 92.1632 20H98.1069C98.0588 19.1891 97.77 18.5437 97.2406 18.0638C96.7112 17.5839 96.0535 17.344 95.2674 17.344Z" fill="#009E75"/>
<path d="M103.826 27.3723V9.5H106.906V27.3723H103.826Z" fill="#009E75"/>
<path d="M110.053 32.8333V15.0603H112.797L113.133 16.8227C113.518 16.2766 114.024 15.7967 114.649 15.383C115.291 14.9693 116.117 14.7624 117.128 14.7624C118.251 14.7624 119.254 15.0437 120.136 15.6064C121.018 16.169 121.716 16.9385 122.229 17.9149C122.743 18.8913 123 20 123 21.2411C123 22.4823 122.743 23.591 122.229 24.5674C121.716 25.5272 121.018 26.2884 120.136 26.8511C119.254 27.3972 118.251 27.6702 117.128 27.6702C116.23 27.6702 115.444 27.4965 114.77 27.1489C114.096 26.8014 113.55 26.3132 113.133 25.6844V32.8333H110.053ZM116.478 24.8901C117.457 24.8901 118.267 24.5508 118.909 23.8723C119.55 23.1939 119.871 22.3168 119.871 21.2411C119.871 20.1655 119.55 19.2801 118.909 18.5851C118.267 17.8901 117.457 17.5426 116.478 17.5426C115.484 17.5426 114.665 17.8901 114.024 18.5851C113.398 19.2636 113.085 20.1407 113.085 21.2163C113.085 22.292 113.398 23.1773 114.024 23.8723C114.665 24.5508 115.484 24.8901 116.478 24.8901Z" fill="#009E75"/>
<path d="M7 27.6H30.8824V34H7V27.6Z" fill="#009E75"/>
<path d="M7 11.0667L18.9412 17.7333L30.8824 11.0667V20.6667L18.9412 27.3333L7 20.6667V11.0667Z" fill="#009E75"/>
<path d="M23.9398 10.9333C23.9398 13.6579 21.6397 15.8667 18.8023 15.8667C15.965 15.8667 13.6648 13.6579 13.6648 10.9333C13.6648 8.20873 15.965 6 18.8023 6C21.6397 6 23.9398 8.20873 23.9398 10.9333Z" fill="#009E75"/>
</svg>
