<svg width="28" height="28" viewBox="0 0 28 28" fill="none" xmlns="http://www.w3.org/2000/svg">
<rect width="28" height="28" fill="#E5E5E5"/>
<g clip-path="url(#clip0_0_1)">
<rect width="375" height="12490" transform="translate(-56 -12262)" fill="#FCFBF7"/>
<g clip-path="url(#clip1_0_1)">
<rect x="-56" y="-1150" width="375" height="1378" fill="#020202"/>
<circle opacity="0.5" cx="14" cy="14" r="13.5" stroke="#FFD249"/>
<path fill-rule="evenodd" clip-rule="evenodd" d="M11.8356 8.7815C12.3954 8.75573 12.5739 8.75 14 8.75C15.4261 8.75 15.6046 8.7562 16.164 8.7815C16.7233 8.8068 17.1051 8.89605 17.4392 9.02539C17.7891 9.15759 18.1065 9.36425 18.369 9.63152C18.6362 9.89355 18.8424 10.2105 18.9741 10.5608C19.104 10.8949 19.1927 11.2767 19.2185 11.8351C19.2443 12.3959 19.25 12.5744 19.25 14C19.25 15.4261 19.2438 15.6046 19.2185 16.1644C19.1932 16.7228 19.104 17.1047 18.9741 17.4388C18.8424 17.7891 18.6359 18.1065 18.369 18.369C18.1065 18.6362 17.7891 18.8424 17.4392 18.9741C17.1051 19.104 16.7233 19.1927 16.1649 19.2185C15.6046 19.2443 15.4261 19.25 14 19.25C12.5739 19.25 12.3954 19.2438 11.8356 19.2185C11.2772 19.1932 10.8953 19.104 10.5612 18.9741C10.2109 18.8424 9.89346 18.6359 9.63105 18.369C9.36395 18.1068 9.15726 17.7895 9.02539 17.4392C8.89605 17.1051 8.80727 16.7233 8.7815 16.1649C8.75573 15.6041 8.75 15.4256 8.75 14C8.75 12.5739 8.7562 12.3954 8.7815 11.836C8.8068 11.2767 8.89605 10.8949 9.02539 10.5608C9.15746 10.2105 9.36431 9.89322 9.63152 9.63105C9.89356 9.36401 10.2107 9.15733 10.5608 9.02539C10.8949 8.89605 11.2767 8.80727 11.8351 8.7815H11.8356ZM16.1215 9.7265C15.5678 9.7012 15.4018 9.69595 14 9.69595C12.5982 9.69595 12.4322 9.7012 11.8785 9.7265C11.3664 9.74989 11.0886 9.83532 10.9035 9.90739C10.6586 10.0028 10.4835 10.116 10.2997 10.2997C10.1255 10.4692 9.99147 10.6755 9.90739 10.9035C9.83532 11.0886 9.74989 11.3664 9.7265 11.8785C9.7012 12.4322 9.69595 12.5982 9.69595 14C9.69595 15.4018 9.7012 15.5678 9.7265 16.1215C9.74989 16.6336 9.83532 16.9114 9.90739 17.0965C9.99139 17.3242 10.1255 17.5309 10.2997 17.7003C10.4691 17.8745 10.6758 18.0086 10.9035 18.0926C11.0886 18.1647 11.3664 18.2501 11.8785 18.2735C12.4322 18.2988 12.5978 18.304 14 18.304C15.4022 18.304 15.5678 18.2988 16.1215 18.2735C16.6336 18.2501 16.9114 18.1647 17.0965 18.0926C17.3414 17.9972 17.5165 17.884 17.7003 17.7003C17.8745 17.5309 18.0086 17.3242 18.0926 17.0965C18.1647 16.9114 18.2501 16.6336 18.2735 16.1215C18.2988 15.5678 18.304 15.4018 18.304 14C18.304 12.5982 18.2988 12.4322 18.2735 11.8785C18.2501 11.3664 18.1647 11.0886 18.0926 10.9035C17.9972 10.6586 17.884 10.4835 17.7003 10.2997C17.5308 10.1255 17.3245 9.99149 17.0965 9.90739C16.9114 9.83532 16.6336 9.74989 16.1215 9.7265ZM13.3294 15.6184C13.7039 15.7743 14.1209 15.7954 14.5092 15.678C14.8975 15.5606 15.233 15.312 15.4584 14.9747C15.6837 14.6374 15.785 14.2324 15.7449 13.8287C15.7048 13.425 15.5258 13.0478 15.2385 12.7615C15.0554 12.5784 14.8339 12.4383 14.5901 12.3511C14.3462 12.2639 14.0861 12.2319 13.8284 12.2573C13.5707 12.2827 13.3219 12.3649 13.0998 12.4981C12.8777 12.6312 12.6879 12.8119 12.544 13.0272C12.4001 13.2425 12.3058 13.4871 12.2677 13.7432C12.2297 13.9993 12.249 14.2607 12.3241 14.5085C12.3992 14.7564 12.5283 14.9844 12.7022 15.1763C12.876 15.3683 13.0902 15.5192 13.3294 15.6184ZM12.0919 12.0919C12.3424 11.8413 12.6399 11.6425 12.9673 11.5069C13.2947 11.3713 13.6456 11.3015 14 11.3015C14.3544 11.3015 14.7053 11.3713 15.0327 11.5069C15.3601 11.6425 15.6576 11.8413 15.9081 12.0919C16.1587 12.3424 16.3575 12.6399 16.4931 12.9673C16.6287 13.2947 16.6985 13.6456 16.6985 14C16.6985 14.3544 16.6287 14.7053 16.4931 15.0327C16.3575 15.3601 16.1587 15.6576 15.9081 15.9081C15.4021 16.4142 14.7157 16.6985 14 16.6985C13.2843 16.6985 12.5979 16.4142 12.0919 15.9081C11.5858 15.4021 11.3015 14.7157 11.3015 14C11.3015 13.2843 11.5858 12.5979 12.0919 12.0919ZM17.297 11.7034C17.3591 11.6448 17.4088 11.5743 17.4432 11.4962C17.4776 11.4181 17.4959 11.3338 17.4972 11.2485C17.4984 11.1631 17.4825 11.0784 17.4504 10.9993C17.4183 10.9202 17.3707 10.8483 17.3103 10.788C17.25 10.7276 17.1781 10.68 17.099 10.6479C17.0199 10.6158 16.9352 10.5999 16.8498 10.6011C16.7645 10.6024 16.6802 10.6207 16.6021 10.6551C16.524 10.6895 16.4535 10.7392 16.395 10.8013C16.281 10.9221 16.2187 11.0825 16.2211 11.2485C16.2235 11.4145 16.2905 11.573 16.4079 11.6904C16.5253 11.8078 16.6838 11.8748 16.8498 11.8772C17.0158 11.8797 17.1762 11.8173 17.297 11.7034Z" fill="#FFD249"/>
</g>
</g>
<defs>
<clipPath id="clip0_0_1">
<rect width="375" height="12490" fill="white" transform="translate(-56 -12262)"/>
</clipPath>
<clipPath id="clip1_0_1">
<rect width="375" height="1378" fill="white" transform="translate(-56 -1150)"/>
</clipPath>
</defs>
</svg>
