<svg width="28" height="28" viewBox="0 0 28 28" fill="none" xmlns="http://www.w3.org/2000/svg">
<rect width="28" height="28" fill="#E5E5E5"/>
<g clip-path="url(#clip0_0_1)">
<rect width="375" height="12490" transform="translate(-132 -12262)" fill="#FCFBF7"/>
<g clip-path="url(#clip1_0_1)">
<rect x="-132" y="-1150" width="375" height="1378" fill="#020202"/>
<circle opacity="0.5" cx="14" cy="14" r="13.5" stroke="#FFD249"/>
<path fill-rule="evenodd" clip-rule="evenodd" d="M12.6502 12.4087H14.6001V13.38C14.8809 12.8214 15.6012 12.3195 16.6833 12.3195C18.7575 12.3195 19.25 13.4314 19.25 15.4716V19.25H17.15V15.9362C17.15 14.7744 16.8691 14.1192 16.1541 14.1192C15.1624 14.1192 14.7502 14.8253 14.7502 15.9357V19.25H12.6502V12.4087ZM9.04925 19.1607H11.1493V12.3195H9.04925V19.1607ZM11.4501 10.0888C11.4502 10.2648 11.4152 10.439 11.3474 10.6015C11.2795 10.7639 11.18 10.9112 11.0547 11.0348C10.8009 11.2871 10.4572 11.4284 10.0993 11.4275C9.74193 11.4273 9.39906 11.2864 9.1448 11.0353C9.01996 10.9113 8.92083 10.7638 8.85308 10.6014C8.78533 10.4389 8.7503 10.2647 8.75 10.0888C8.75 9.73333 8.89175 9.39313 9.14533 9.14218C9.39936 8.89078 9.74238 8.74984 10.0998 8.75C10.4578 8.75 10.8012 8.89123 11.0547 9.14218C11.3078 9.39313 11.4501 9.73333 11.4501 10.0888Z" fill="#FFD249"/>
</g>
</g>
<defs>
<clipPath id="clip0_0_1">
<rect width="375" height="12490" fill="white" transform="translate(-132 -12262)"/>
</clipPath>
<clipPath id="clip1_0_1">
<rect width="375" height="1378" fill="white" transform="translate(-132 -1150)"/>
</clipPath>
</defs>
</svg>
