<svg width="18" height="22" viewBox="0 0 18 22" fill="none" xmlns="http://www.w3.org/2000/svg">
<g clip-path="url(#clip0_1009_2577)">
<path d="M9.0026 0.166992C4.4526 0.166992 0.335938 3.65533 0.335938 9.05033C0.335938 12.4953 2.9901 16.547 8.2876 21.2162C8.69927 21.5737 9.31677 21.5737 9.72844 21.2162C15.0151 16.547 17.6693 12.4953 17.6693 9.05033C17.6693 3.65533 13.5526 0.166992 9.0026 0.166992ZM9.0026 11.0003C7.81094 11.0003 6.83594 10.0253 6.83594 8.83366C6.83594 7.64199 7.81094 6.66699 9.0026 6.66699C10.1943 6.66699 11.1693 7.64199 11.1693 8.83366C11.1693 10.0253 10.1943 11.0003 9.0026 11.0003Z" fill="#E7A251"/>
</g>
<defs>
<clipPath id="clip0_1009_2577">
<rect width="18" height="22" fill="white"/>
</clipPath>
</defs>
</svg>
