<svg width="48" height="48" viewBox="0 0 48 48" fill="none" xmlns="http://www.w3.org/2000/svg">
<rect width="48" height="48" rx="12" fill="#449183"/>
<g filter="url(#filter0_d_140_262)">
<path d="M14.6667 12C13.429 12 12.242 12.5057 11.3668 13.4059C10.4917 14.3061 10 15.527 10 16.8V17.2824L24 25.0368L38 17.2848V16.8C38 15.527 37.5083 14.3061 36.6332 13.4059C35.758 12.5057 34.571 12 33.3333 12H14.6667ZM38 20.0088L24.553 27.456C24.383 27.5501 24.193 27.5994 24 27.5994C23.807 27.5994 23.617 27.5501 23.447 27.456L10 20.0088V31.2C10 32.473 10.4917 33.6939 11.3668 34.5941C12.242 35.4943 13.429 36 14.6667 36H33.3333C34.571 36 35.758 35.4943 36.6332 34.5941C37.5083 33.6939 38 32.473 38 31.2V20.0088Z" fill="white"/>
</g>
<defs>
<filter id="filter0_d_140_262" x="6" y="12" width="36" height="32" filterUnits="userSpaceOnUse" color-interpolation-filters="sRGB">
<feFlood flood-opacity="0" result="BackgroundImageFix"/>
<feColorMatrix in="SourceAlpha" type="matrix" values="0 0 0 0 0 0 0 0 0 0 0 0 0 0 0 0 0 0 127 0" result="hardAlpha"/>
<feOffset dy="4"/>
<feGaussianBlur stdDeviation="2"/>
<feComposite in2="hardAlpha" operator="out"/>
<feColorMatrix type="matrix" values="0 0 0 0 0.121626 0 0 0 0 0.350282 0 0 0 0 0.308708 0 0 0 0.05 0"/>
<feBlend mode="normal" in2="BackgroundImageFix" result="effect1_dropShadow_140_262"/>
<feBlend mode="normal" in="SourceGraphic" in2="effect1_dropShadow_140_262" result="shape"/>
</filter>
</defs>
</svg>
