<svg width="24" height="24" viewBox="0 0 24 24" fill="none" xmlns="http://www.w3.org/2000/svg">
<circle cx="12" cy="12" r="12" fill="white"/>
<path d="M6.84279 5.9544C7.52599 5.572 8.39719 5.4824 9.22999 5.6936C9.63559 5.796 9.98199 6.0592 10.19 6.4216L10.9084 7.6744C11.1644 8.12103 11.2384 8.64921 11.1149 9.14899C10.9913 9.64878 10.6798 10.0817 10.2452 10.3576L9.61319 10.7592C9.35159 10.9248 9.25559 11.1784 9.31559 11.3792C9.52999 12.0976 10.0044 12.8944 10.526 13.44C10.6812 13.6032 10.966 13.6416 11.2444 13.4792L11.594 13.2752C11.8234 13.1415 12.0771 13.0548 12.3404 13.0202C12.6036 12.9856 12.8711 13.0037 13.1273 13.0735C13.3835 13.1434 13.6231 13.2636 13.8324 13.427C14.0416 13.5905 14.2162 13.794 14.346 14.0256L14.99 15.1736C15.2004 15.5496 15.2348 15.9984 15.086 16.4024C14.7892 17.2048 14.2172 17.852 13.514 18.176C12.7996 18.5048 11.9636 18.4912 11.2068 17.9864C10.0084 17.188 8.56439 15.844 7.25639 13.6024C5.93159 11.3304 5.59799 9.3968 5.63559 7.9552C5.65959 7.0328 6.14759 6.3432 6.84279 5.9544ZM14.1964 5.6504C14.1037 5.59884 13.9943 5.58623 13.8923 5.61533C13.7902 5.64444 13.704 5.71288 13.6524 5.8056C13.6008 5.89832 13.5882 6.00772 13.6173 6.10974C13.6464 6.21176 13.7149 6.29804 13.8076 6.3496L14.1148 6.5208C15.0745 7.05392 15.8908 7.81148 16.4941 8.72872C17.0973 9.64597 17.4695 10.6956 17.5788 11.788L17.6044 12.04C17.6074 12.0939 17.6213 12.1467 17.6453 12.1951C17.6693 12.2435 17.7028 12.2866 17.7439 12.3217C17.7849 12.3568 17.8327 12.3832 17.8842 12.3994C17.9358 12.4155 17.9901 12.421 18.0438 12.4156C18.0976 12.4102 18.1497 12.394 18.197 12.3679C18.2443 12.3418 18.2858 12.3064 18.319 12.2638C18.3523 12.2212 18.3766 12.1724 18.3904 12.1202C18.4043 12.0679 18.4074 12.0135 18.3996 11.96L18.3748 11.7088C18.2527 10.4877 17.8368 9.31426 17.1625 8.28889C16.4882 7.26352 15.5756 6.41669 14.5028 5.8208L14.1964 5.6504ZM13.2588 7.7944C13.3134 7.70349 13.402 7.63802 13.5049 7.61236C13.6078 7.58671 13.7167 7.60298 13.8076 7.6576L13.9068 7.7168C14.5526 8.10396 15.1065 8.62674 15.5304 9.24899C15.9543 9.87125 16.2381 10.5781 16.362 11.3208L16.3972 11.5344C16.4076 11.5869 16.4073 11.641 16.3964 11.6934C16.3855 11.7458 16.3641 11.7955 16.3337 11.8396C16.3032 11.8836 16.2642 11.921 16.219 11.9497C16.1737 11.9784 16.1232 11.9977 16.0704 12.0065C16.0176 12.0153 15.9635 12.0133 15.9115 12.0009C15.8594 11.9884 15.8104 11.9656 15.7673 11.9338C15.7242 11.902 15.6879 11.8619 15.6606 11.8158C15.6334 11.7697 15.6156 11.7187 15.6084 11.6656L15.5724 11.4528C15.4678 10.8244 15.228 10.2261 14.8696 9.69947C14.5112 9.1728 14.0426 8.73024 13.4964 8.4024L13.3972 8.3432C13.3521 8.3162 13.3128 8.28059 13.2815 8.2384C13.2502 8.19621 13.2275 8.14827 13.2147 8.0973C13.2019 8.04634 13.1993 7.99336 13.207 7.94138C13.2147 7.88941 13.2326 7.83946 13.2596 7.7944H13.2588Z" fill="#020202"/>
</svg>
