<svg width="48" height="49" viewBox="0 0 48 49" fill="none" xmlns="http://www.w3.org/2000/svg">
<rect y="0.863281" width="48" height="48" rx="12" fill="#449183"/>
<g filter="url(#filter0_d_335_2130)">
<path d="M36.5998 25.1716C36.5998 17.4856 30.6359 12.2637 23.9999 12.2637C17.434 12.2637 11.4 17.3736 11.4 25.2556C10.56 25.7316 10 26.6276 10 27.6636V30.4636C10 32.0036 11.26 33.2635 12.8 33.2635H14.2V24.7236C14.2 19.3056 18.582 14.9237 23.9999 14.9237C29.4179 14.9237 33.7999 19.3056 33.7999 24.7236V34.6635H22.5999V37.4635H33.7999C35.3399 37.4635 36.5998 36.2035 36.5998 34.6635V32.9556C37.4258 32.5216 37.9998 31.6676 37.9998 30.6596V27.4396C37.9998 26.4596 37.4258 25.6056 36.5998 25.1716Z" fill="white"/>
<path d="M19.7984 27.6633C20.5716 27.6633 21.1984 27.0365 21.1984 26.2633C21.1984 25.4901 20.5716 24.8633 19.7984 24.8633C19.0252 24.8633 18.3984 25.4901 18.3984 26.2633C18.3984 27.0365 19.0252 27.6633 19.7984 27.6633Z" fill="white"/>
<path d="M28.2008 27.6633C28.974 27.6633 29.6008 27.0365 29.6008 26.2633C29.6008 25.4901 28.974 24.8633 28.2008 24.8633C27.4276 24.8633 26.8008 25.4901 26.8008 26.2633C26.8008 27.0365 27.4276 27.6633 28.2008 27.6633Z" fill="white"/>
<path d="M32.4017 23.5058C32.0679 21.5376 31.0485 19.751 29.524 18.4622C27.9994 17.1734 26.0681 16.4655 24.0718 16.4639C19.8298 16.4639 15.2658 19.9778 15.6298 25.4938C17.3562 24.7874 18.8809 23.6647 20.0681 22.2259C21.2553 20.7872 22.068 19.077 22.4338 17.2479C24.2678 20.9298 28.0337 23.4638 32.4017 23.5058Z" fill="white"/>
</g>
<defs>
<filter id="filter0_d_335_2130" x="6" y="12.2637" width="36" height="33.2002" filterUnits="userSpaceOnUse" color-interpolation-filters="sRGB">
<feFlood flood-opacity="0" result="BackgroundImageFix"/>
<feColorMatrix in="SourceAlpha" type="matrix" values="0 0 0 0 0 0 0 0 0 0 0 0 0 0 0 0 0 0 127 0" result="hardAlpha"/>
<feOffset dy="4"/>
<feGaussianBlur stdDeviation="2"/>
<feComposite in2="hardAlpha" operator="out"/>
<feColorMatrix type="matrix" values="0 0 0 0 0.121626 0 0 0 0 0.350282 0 0 0 0 0.308708 0 0 0 0.05 0"/>
<feBlend mode="normal" in2="BackgroundImageFix" result="effect1_dropShadow_335_2130"/>
<feBlend mode="normal" in="SourceGraphic" in2="effect1_dropShadow_335_2130" result="shape"/>
</filter>
</defs>
</svg>
