<svg width="28" height="28" viewBox="0 0 28 28" fill="none" xmlns="http://www.w3.org/2000/svg">
<rect width="28" height="28" fill="#E5E5E5"/>
<g clip-path="url(#clip0_0_1)">
<rect width="375" height="12490" transform="translate(-18 -12262)" fill="#FCFBF7"/>
<g clip-path="url(#clip1_0_1)">
<rect x="-18" y="-1150" width="375" height="1378" fill="#020202"/>
<circle opacity="0.5" cx="14" cy="14" r="13.5" stroke="#FFD249"/>
<path d="M20.4154 9.99549C19.9434 10.206 19.4364 10.3482 18.9035 10.4125C19.4534 10.0813 19.8648 9.56002 20.061 8.94598C19.5443 9.25485 18.9788 9.47227 18.3891 9.58877C17.9926 9.16263 17.4673 8.88018 16.8949 8.78526C16.3226 8.69035 15.735 8.78829 15.2236 9.06387C14.7122 9.33945 14.3055 9.77726 14.0666 10.3093C13.8277 10.8414 13.7701 11.4379 13.9026 12.0064C12.8557 11.9534 11.8315 11.6796 10.8966 11.2025C9.96163 10.7255 9.1368 10.0559 8.47561 9.23722C8.24953 9.62973 8.11953 10.0848 8.11953 10.5695C8.11928 11.0058 8.22603 11.4354 8.43032 11.8202C8.63461 12.205 8.93011 12.5331 9.29062 12.7754C8.87253 12.762 8.46366 12.6483 8.09806 12.4438V12.4779C8.09801 13.0898 8.30833 13.6829 8.69331 14.1566C9.07829 14.6302 9.61423 14.9552 10.2102 15.0764C9.82235 15.182 9.41572 15.1976 9.02102 15.1219C9.18916 15.6484 9.51669 16.1089 9.95776 16.4387C10.3988 16.7686 10.9313 16.9514 11.4808 16.9615C10.5481 17.6984 9.39625 18.0981 8.21053 18.0964C8.00049 18.0964 7.79063 18.0841 7.58203 18.0594C8.7856 18.8383 10.1866 19.2516 11.6175 19.25C16.4613 19.25 19.1092 15.2123 19.1092 11.7106C19.1092 11.5968 19.1064 11.4819 19.1013 11.3681C19.6163 10.9932 20.0609 10.529 20.4142 9.9972L20.4154 9.99549Z" fill="#FFD249"/>
</g>
</g>
<defs>
<clipPath id="clip0_0_1">
<rect width="375" height="12490" fill="white" transform="translate(-18 -12262)"/>
</clipPath>
<clipPath id="clip1_0_1">
<rect width="375" height="1378" fill="white" transform="translate(-18 -1150)"/>
</clipPath>
</defs>
</svg>
